<svg xmlns="http://www.w3.org/2000/svg" xmlns:xlink="http://www.w3.org/1999/xlink" viewBox="0 0 14826.6 1412.82"><defs><style>.cls-1{isolation:isolate;}.cls-2{fill:#fff;}.cls-3{fill:url(#linear-gradient);}.cls-4{fill:url(#linear-gradient-2);}.cls-5{fill:none;}.cls-6{fill:url(#linear-gradient-3);}.cls-7{fill:url(#linear-gradient-4);}.cls-8{fill:#2b2b2b;opacity:0.5;mix-blend-mode:luminosity;}</style><linearGradient id="linear-gradient" x1="609.48" y1="705.72" x2="2079.55" y2="705.72" gradientUnits="userSpaceOnUse"><stop offset="0" stop-color="#b11f5a"/><stop offset="0.09" stop-color="#be1f5b"/><stop offset="0.32" stop-color="#db1f5d"/><stop offset="0.55" stop-color="#ef1f5e"/><stop offset="0.77" stop-color="#fb1f5f"/><stop offset="1" stop-color="#ff1f5f"/></linearGradient><linearGradient id="linear-gradient-2" x1="1337.89" y1="0.21" x2="1337.89" y2="1411.48" xlink:href="#linear-gradient"/><linearGradient id="linear-gradient-3" x1="596.23" y1="791.07" x2="597.8" y2="791.07" xlink:href="#linear-gradient"/><linearGradient id="linear-gradient-4" x1="322.45" y1="916.62" x2="736.49" y2="723.16" gradientUnits="userSpaceOnUse"><stop offset="0" stop-color="#049ee1"/><stop offset="0.3" stop-color="#069be1"/><stop offset="0.53" stop-color="#0d91e1"/><stop offset="0.75" stop-color="#1880e1"/><stop offset="0.95" stop-color="#2869e1"/><stop offset="1" stop-color="#2d61e1"/></linearGradient></defs><g class="cls-1"><g id="Layer_1" data-name="Layer 1"><path class="cls-2" d="M3147.38,904.83c-20-18.07-50.83-18.85-70.55-.51q-80.28,74.71-187,74.7-75.71,0-134.81-33.19t-91.63-93.64q-32.57-60.42-32.55-138.8t32.55-138.8q32.52-60.4,91.63-93.63t134.81-33.21q106.68,0,187,74.71c19.72,18.35,50.58,17.56,70.54-.51L3237,440.86c23.12-20.92,22.91-56.74.48-78.38q-56.33-54.35-131.12-87.38-102.3-45.14-229.78-45.16-146.1,0-262.31,61.77t-182.62,172Q2365.22,574,2365.24,713.39t66.41,249.69q66.39,110.26,182.62,172t262.31,61.76q127.52,0,229.78-45.15,74.8-33,131.13-87.38c22.43-21.64,22.63-57.47-.48-78.38Z" transform="translate(0)"/><path class="cls-2" d="M4050,292.37Q3932.45,230,3785,229.94t-265,62.43Q3402.5,354.8,3335.42,465t-67.07,248.37q0,138.14,67.07,248.38T3520,1134.43q117.54,62.44,265,62.41t265-62.41q117.54-62.43,184.61-172.66t67.08-248.38q0-138.12-67.08-248.37T4050,292.37Zm-47.15,559.82q-33.21,60.45-90.31,93.64T3785,979q-70.41,0-127.5-33.19t-90.32-93.64Q3534,791.77,3534,713.39t33.21-138.8q33.18-60.4,90.32-93.63T3785,447.75q70.36,0,127.5,33.21t90.31,93.63q33.18,60.46,33.2,138.8T4002.82,852.19Z" transform="translate(0)"/><path class="cls-2" d="M5220.13,248.54H5068.56a53,53,0,0,0-53,53V743.94L4621,267.74a53,53,0,0,0-40.85-19.2h-138.5a53,53,0,0,0-53.05,53V1125.2a53,53,0,0,0,53.05,53h151.56a53,53,0,0,0,53.05-53V682.84l394.5,476.2a53,53,0,0,0,40.85,19.21h138.49a53,53,0,0,0,53.05-53V301.59A53,53,0,0,0,5220.13,248.54Z" transform="translate(0)"/><path class="cls-2" d="M6308.38,248.54H6163.6a53.06,53.06,0,0,0-48.82,32.27L5870.85,854.18l-238.74-573a53,53,0,0,0-49-32.64H5414.62c-38.05,0-63.73,38.88-48.78,73.88L5717.64,1146a53.05,53.05,0,0,0,48.78,32.21h189a53.06,53.06,0,0,0,48.76-32.15l353-823.62C6372.15,287.48,6346.47,248.54,6308.38,248.54Z" transform="translate(0)"/><path class="cls-2" d="M7143.3,975.05H6710.24V805h360a53,53,0,0,0,53.05-53V661.51a53,53,0,0,0-53.05-53h-360V451.74H7126a53,53,0,0,0,53.05-53V301.59a53,53,0,0,0-53.05-53H6503a53,53,0,0,0-53,53V1125.2a53,53,0,0,0,53,53H7143.3a53,53,0,0,0,53.05-53v-97.1A53,53,0,0,0,7143.3,975.05Z" transform="translate(0)"/><path class="cls-2" d="M8056.45,768.51q47.11-75,47.16-176,0-104.91-50.49-182.62T7909.69,290.37q-93-41.83-219.15-41.83H7318.59a53,53,0,0,0-53.05,53V1125.2a53,53,0,0,0,53.05,53h156.86a53,53,0,0,0,53.05-53v-194h130.21a25,25,0,0,1,20.69,10.93l145.43,213a53,53,0,0,0,43.81,23.14H8055c28.49,0,45.31-31.94,29.19-55.43L7921.64,886.05Q8009.3,843.54,8056.45,768.51ZM7796.8,692.8Q7755.63,728,7674.6,728h-121a25.06,25.06,0,0,1-25.06-25.07V480.78a25.06,25.06,0,0,1,25.06-25.06h121q81,0,122.2,35.87T7838,592.53Q7838,657.62,7796.8,692.8Z" transform="translate(0)"/><path class="cls-2" d="M8806.36,660.93q-69.74-25.9-176-48.48-94.29-19.92-136.81-38.52t-42.49-55.78q0-37.17,35.86-60.43t114.23-23.24q101.49,0,208.3,47.42c27.41,12.17,59.47-.07,71-27.77l40.71-98.1c10.8-26-.34-56.58-26-68.22q-51-23.16-112-37.28a799,799,0,0,0-180.62-20.59q-134.16,0-226.44,39.84T8237.26,378q-46.53,68.42-46.49,153.4,0,97,50.46,154.07t120.87,83q70.38,25.9,175.32,48.47,95.63,21.27,138.79,40.51t43.15,59.11q0,75.71-151.4,75.72-79.69,0-162-25.25a602.73,602.73,0,0,1-97-38.71c-26.77-13.62-59.45-1.41-71.67,26l-43.4,97.47c-11.58,26-.37,56,24.88,69.18q54.71,28.49,128.78,47.92a860,860,0,0,0,219.14,27.88q132.8,0,225.79-40.5t139.45-108.25q46.5-67.74,46.49-151.42,0-96.92-51.13-153.4T8806.36,660.93Z" transform="translate(0)"/><rect class="cls-2" x="9065.9" y="248.54" width="262.96" height="929.71" rx="53.05"/><path class="cls-2" d="M10197.5,292.37q-117.54-62.42-265-62.43t-265,62.43Q9550,354.8,9483,465t-67.08,248.37q0,138.14,67.08,248.38t184.61,172.66q117.54,62.44,265,62.41t265-62.41Q10315,1072,10382.11,961.77t67.08-248.38q0-138.12-67.08-248.37T10197.5,292.37Zm-47.15,559.82q-33.21,60.45-90.31,93.64T9932.54,979q-70.4,0-127.5-33.19t-90.31-93.64q-33.24-60.42-33.23-138.8t33.23-138.8q33.18-60.4,90.31-93.63t127.5-33.21q70.36,0,127.5,33.21t90.31,93.63q33.19,60.46,33.2,138.8T10150.35,852.19Z" transform="translate(0)"/><path class="cls-2" d="M11368.11,248.54h-151.57a53,53,0,0,0-53.05,53V743.94L10769,267.74a53,53,0,0,0-40.85-19.2h-138.49a53,53,0,0,0-53,53V1125.2a53,53,0,0,0,53,53h151.57a53.05,53.05,0,0,0,53.05-53V682.84l394.48,476.2a53,53,0,0,0,40.85,19.21h138.51a53.05,53.05,0,0,0,53-53V301.59A53,53,0,0,0,11368.11,248.54Z" transform="translate(0)"/><path class="cls-2" d="M12961.83,248.54h-51.66a35.35,35.35,0,0,0-33.51,24.06l-248.22,735.65L12380.22,272.6a35.35,35.35,0,0,0-33.51-24.06h-71.61a35.37,35.37,0,0,0-33.42,23.79l-253.41,731.93-243-731.51a35.37,35.37,0,0,0-33.57-24.21h-62.17a35.37,35.37,0,0,0-33.55,46.57l287.15,859a35.38,35.38,0,0,0,33.54,24.15h91.36a35.38,35.38,0,0,0,33.47-23.93L12307,435.81l245.5,718.51a35.37,35.37,0,0,0,33.47,23.93h88.71a35.37,35.37,0,0,0,33.54-24.15l287.14-859A35.37,35.37,0,0,0,12961.83,248.54Z" transform="translate(0)"/><path class="cls-2" d="M13204,248.54h-62.07a35.37,35.37,0,0,0-35.37,35.36v859a35.38,35.38,0,0,0,35.37,35.37H13204a35.38,35.38,0,0,0,35.37-35.37v-859A35.37,35.37,0,0,0,13204,248.54Z" transform="translate(0)"/><path class="cls-2" d="M13887.52,708.08q-63.74-25.22-168.66-50.47-81-18.6-128.18-35.2t-79-46.48q-31.86-29.88-31.88-77.7,0-65.07,56.47-106.25t169.32-41.18q63.77,0,130.16,19.26a481.43,481.43,0,0,1,91.21,36.88,35.16,35.16,0,0,0,49-17.67l17.1-41.43a35.61,35.61,0,0,0-15.26-44.45q-48.27-27.72-110.17-44.23a627,627,0,0,0-162-21.25q-118.21,0-197.89,35.86t-118.86,95.63q-39.19,59.76-39.18,134.14,0,89,45.81,141.46a279.85,279.85,0,0,0,110.23,77.68q64.43,25.26,169.36,50.48,83.65,19.92,129.49,35.86t77,45.81q31.19,29.89,31.22,77.71,0,65.09-57.12,104.26T13683,1076a499.92,499.92,0,0,1-170.67-29.87q-58.83-21.18-102.67-51.37c-18.14-12.5-42.92-6.4-52.37,13.52l-18.46,38.92a35.65,35.65,0,0,0,10.8,43.72q51.66,39,130.82,65.45a636.16,636.16,0,0,0,202.55,32.53q118.19,0,199.22-35.19t120.87-95.63q39.82-60.42,39.85-133.48,0-87.66-45.83-139.46A283.76,283.76,0,0,0,13887.52,708.08Z" transform="translate(0)"/><path class="cls-2" d="M14791.24,1062.69h-506.52V762.54h430.82a35.37,35.37,0,0,0,35.36-35.37V685a35.36,35.36,0,0,0-35.36-35.36h-430.82V364.09h487.92a35.36,35.36,0,0,0,35.36-35.37V283.9a35.36,35.36,0,0,0-35.36-35.36h-585.38a35.36,35.36,0,0,0-35.36,35.36v859a35.37,35.37,0,0,0,35.36,35.37h604a35.37,35.37,0,0,0,35.36-35.37v-44.82A35.37,35.37,0,0,0,14791.24,1062.69Z" transform="translate(0)"/><path class="cls-3" d="M1719.5,81.84,1268.86,872.5,932.94,304a26.83,26.83,0,0,0-46.15-.09L609.48,769.28a217.57,217.57,0,0,1,119.06-35.39c87.13,0,162.14,51.06,197.32,124.78l319.63,539.61a26.83,26.83,0,0,0,46.42-.42L2062.8,40.21c11.63-20.31-6.49-44.74-29.3-39.49L1736.8,69A26.81,26.81,0,0,0,1719.5,81.84Z" transform="translate(0)"/><path class="cls-4" d="M1898.08,32.46l-606,1080.29a26.84,26.84,0,0,1-46.6.37l-415-713.27-221,369.43a217.57,217.57,0,0,1,119.06-35.39c87.13,0,162.14,51.06,197.32,124.78l319.62,539.65a26.84,26.84,0,0,0,46.43-.42L2062.68,40.41c11.65-20.34-6.54-44.78-29.37-39.47Z" transform="translate(0)"/><path class="cls-5" d="M908.21,828.27l-.05.09c.17.25.36.49.53.74Z" transform="translate(0)"/><path class="cls-6" d="M596.23,791.17l.32-.19Z" transform="translate(0)"/><path class="cls-7" d="M728.54,733.89a217.57,217.57,0,0,0-119.06,35.39L596.55,791l-40.76,68.39L289.46,404.94A26.83,26.83,0,0,0,260,392.42L20.56,450.18a26.83,26.83,0,0,0-17,39.47s424.12,729.41,529.15,909.85a26.81,26.81,0,0,0,46.42-.14l316-548.78,13-22.22C868.71,771.36,803.11,733.89,728.54,733.89Z" transform="translate(0)"/><path class="cls-8" d="M728.54,733.89a217.57,217.57,0,0,0-119.06,35.39L596.55,791A217.48,217.48,0,0,1,715.3,755.77c74.72,0,140.44,37.62,179.86,94.81l13-22.22C868.71,771.36,803.11,733.89,728.54,733.89Z" transform="translate(0)"/></g></g></svg>
